<svg width="323" height="740" viewBox="0 0 323 740" fill="none" xmlns="http://www.w3.org/2000/svg">
<g filter="url(#filter0_d_362_2)">
<path d="M179.537 665.839C247.724 709.008 350.399 574.1 350.399 574.1C350.399 574.1 481.792 138.062 222.978 249.38C151.554 280.1 205.975 348.905 109.418 324.115C12.8602 299.325 1.43536 476.044 93.9402 530.287C186.445 584.53 111.35 622.671 179.537 665.839Z" fill="#4B437C" fill-opacity="0.5"/>
<path d="M247.96 291.939C257.221 289.317 280.163 286.254 339.373 233.9C398.582 181.546 329.287 159.187 319.185 96.857C309.082 34.5274 237.373 91.7174 195.066 55.3282C152.76 18.9389 79.8279 71.8137 116.827 126.183C153.827 180.552 112.293 246.714 157.474 271.49C202.654 296.266 238.7 294.562 247.96 291.939Z" fill="url(#paint0_linear_362_2)"/>
</g>
<defs>
<filter id="filter0_d_362_2" x="0.422852" y="8.31787" width="453.326" height="731.042" filterUnits="userSpaceOnUse" color-interpolation-filters="sRGB">
<feFlood flood-opacity="0" result="BackgroundImageFix"/>
<feColorMatrix in="SourceAlpha" type="matrix" values="0 0 0 0 0 0 0 0 0 0 0 0 0 0 0 0 0 0 127 0" result="hardAlpha"/>
<feOffset dx="20" dy="15"/>
<feGaussianBlur stdDeviation="25"/>
<feComposite in2="hardAlpha" operator="out"/>
<feColorMatrix type="matrix" values="0 0 0 0 0 0 0 0 0 0 0 0 0 0 0 0 0 0 0.25 0"/>
<feBlend mode="normal" in2="BackgroundImageFix" result="effect1_dropShadow_362_2"/>
<feBlend mode="normal" in="SourceGraphic" in2="effect1_dropShadow_362_2" result="shape"/>
</filter>
<linearGradient id="paint0_linear_362_2" x1="136.104" y1="221.633" x2="419.5" y2="114.5" gradientUnits="userSpaceOnUse">
<stop stop-color="#2AF4D4"/>
<stop offset="1" stop-color="#2AB49E"/>
</linearGradient>
</defs>
</svg>
