<svg width="350" height="988" viewBox="0 0 350 988" fill="none" xmlns="http://www.w3.org/2000/svg">
<g filter="url(#filter0_d_362_3)">
<g filter="url(#filter1_d_362_3)">
<path d="M97.517 39.681C23.034 8.61167 -55.4558 158.883 -55.4558 158.883C-55.4558 158.883 -111.545 610.82 124.828 457.508C190.058 415.2 124.828 356.541 224.181 364.717C323.534 372.893 305.036 196.773 204.718 158.883C104.4 120.993 172 70.7503 97.517 39.681Z" fill="url(#paint0_linear_362_3)"/>
</g>
<path d="M-35 918.5C-15 905 87 877.5 70.5 784.5C60.5645 728.5 92.5 728 89.5 680C84 636.5 70.5 639.5 46 599C31 566.5 24.6421 550.804 26 515.5C26.9323 491.261 52.9133 470.5 66 449C80 426 100.5 398.5 85.5 352.5C65.5 310.5 35.6414 295.724 12.5 282.5C0.5 275.643 -12 270 -30 266" stroke="url(#paint1_linear_362_3)" stroke-width="8" stroke-linecap="round"/>
</g>
<defs>
<filter id="filter0_d_362_3" x="-101.266" y="0.450928" width="451.265" height="987.049" filterUnits="userSpaceOnUse" color-interpolation-filters="sRGB">
<feFlood flood-opacity="0" result="BackgroundImageFix"/>
<feColorMatrix in="SourceAlpha" type="matrix" values="0 0 0 0 0 0 0 0 0 0 0 0 0 0 0 0 0 0 127 0" result="hardAlpha"/>
<feOffset dx="10" dy="15"/>
<feGaussianBlur stdDeviation="25"/>
<feComposite in2="hardAlpha" operator="out"/>
<feColorMatrix type="matrix" values="0 0 0 0 0 0 0 0 0 0 0 0 0 0 0 0 0 0 0.21 0"/>
<feBlend mode="normal" in2="BackgroundImageFix" result="effect1_dropShadow_362_3"/>
<feBlend mode="normal" in="SourceGraphic" in2="effect1_dropShadow_362_3" result="shape"/>
</filter>
<filter id="filter1_d_362_3" x="-65.2656" y="35.4509" width="359.265" height="461.795" filterUnits="userSpaceOnUse" color-interpolation-filters="sRGB">
<feFlood flood-opacity="0" result="BackgroundImageFix"/>
<feColorMatrix in="SourceAlpha" type="matrix" values="0 0 0 0 0 0 0 0 0 0 0 0 0 0 0 0 0 0 127 0" result="hardAlpha"/>
<feOffset dy="4"/>
<feGaussianBlur stdDeviation="2"/>
<feComposite in2="hardAlpha" operator="out"/>
<feColorMatrix type="matrix" values="0 0 0 0 0 0 0 0 0 0 0 0 0 0 0 0 0 0 0.25 0"/>
<feBlend mode="normal" in2="BackgroundImageFix" result="effect1_dropShadow_362_3"/>
<feBlend mode="normal" in="SourceGraphic" in2="effect1_dropShadow_362_3" result="shape"/>
</filter>
<linearGradient id="paint0_linear_362_3" x1="68" y1="377" x2="235.5" y2="185" gradientUnits="userSpaceOnUse">
<stop stop-color="#6A33AF"/>
<stop offset="1" stop-color="#7E42CA"/>
</linearGradient>
<linearGradient id="paint1_linear_362_3" x1="90.0001" y1="529" x2="151.246" y2="242.251" gradientUnits="userSpaceOnUse">
<stop stop-color="#20BCF7"/>
<stop offset="1" stop-color="#2BE8CA"/>
</linearGradient>
</defs>
</svg>
