<svg width="42" height="42" viewBox="0 0 42 42" fill="none" xmlns="http://www.w3.org/2000/svg">
<path d="M25.776 8.64522C27.6464 9.00945 29.3654 9.92246 30.7129 11.2674C32.0605 12.6123 32.9752 14.328 33.3401 16.1949L25.776 8.64522ZM25.776 1C29.662 1.43088 33.2857 3.16775 36.0522 5.92545C38.8186 8.68314 40.5634 12.2977 41 16.1758L25.776 1ZM39.085 31.428V37.1619C39.0872 37.6942 38.978 38.2211 38.7643 38.7088C38.5506 39.1965 38.2373 39.6343 37.8443 39.9942C37.4513 40.354 36.9873 40.628 36.4821 40.7985C35.9769 40.9691 35.4416 41.0324 34.9104 40.9845C29.0177 40.3454 23.3574 38.3357 18.3843 35.1168C13.7574 32.1823 9.8346 28.267 6.89448 23.649C3.65815 18.6628 1.64412 12.9858 1.01554 7.07795C0.967689 6.54941 1.03062 6.01672 1.20034 5.51378C1.37005 5.01085 1.64283 4.5487 2.0013 4.15675C2.35977 3.7648 2.79609 3.45165 3.28246 3.23722C3.76884 3.0228 4.29461 2.9118 4.82632 2.9113H10.5712C11.5006 2.90217 12.4015 3.23064 13.1062 3.83548C13.8108 4.44032 14.2711 5.28026 14.4011 6.19875C14.6436 8.03373 15.0933 9.83544 15.7416 11.5695C15.9993 12.2536 16.055 12.9971 15.9023 13.7119C15.7496 14.4266 15.3947 15.0827 14.8799 15.6024L12.4479 18.0297C15.1739 22.8148 19.1435 26.7767 23.9377 29.4975L26.3697 27.0702C26.8903 26.5563 27.5477 26.2022 28.2638 26.0497C28.9799 25.8973 29.7248 25.9529 30.4102 26.2101C32.1476 26.8572 33.9528 27.306 35.7913 27.548C36.7215 27.679 37.5711 28.1466 38.1784 28.862C38.7857 29.5774 39.1083 30.4906 39.085 31.428Z" stroke="white" stroke-width="2" stroke-linecap="round" stroke-linejoin="round"/>
</svg>
