<svg width="551" height="615" viewBox="0 0 551 615" fill="none" xmlns="http://www.w3.org/2000/svg">
<g filter="url(#filter0_d_358_4)">
<path d="M325.165 727.389C336.232 734.814 360.024 756.289 468.352 771.877C576.68 787.464 538.185 694.276 594.93 627.754C651.674 561.233 527.04 536.784 527.541 459.513C528.043 382.243 406.868 352.636 382.63 440.417C358.392 528.198 251.329 543.644 265.663 613.541C279.996 683.439 314.098 719.964 325.165 727.389Z" fill="#FDE351"/>
<path d="M598.883 107.199C529.376 121.936 464.049 168.273 423.739 233.173C397.263 275.8 367.497 346.069 324.649 372.899C270.508 406.8 212.666 420.205 160.572 460.749C90.3333 515.415 50.0869 606.519 44.6882 691.899" stroke="url(#paint0_linear_358_4)" stroke-width="8" stroke-linecap="round"/>
</g>
<defs>
<filter id="filter0_d_358_4" x="0.688477" y="68.1982" width="669.053" height="770.407" filterUnits="userSpaceOnUse" color-interpolation-filters="sRGB">
<feFlood flood-opacity="0" result="BackgroundImageFix"/>
<feColorMatrix in="SourceAlpha" type="matrix" values="0 0 0 0 0 0 0 0 0 0 0 0 0 0 0 0 0 0 127 0" result="hardAlpha"/>
<feOffset dx="10" dy="15"/>
<feGaussianBlur stdDeviation="25"/>
<feComposite in2="hardAlpha" operator="out"/>
<feColorMatrix type="matrix" values="0 0 0 0 0 0 0 0 0 0 0 0 0 0 0 0 0 0 0.21 0"/>
<feBlend mode="normal" in2="BackgroundImageFix" result="effect1_dropShadow_358_4"/>
<feBlend mode="normal" in="SourceGraphic" in2="effect1_dropShadow_358_4" result="shape"/>
</filter>
<linearGradient id="paint0_linear_358_4" x1="501.231" y1="142.882" x2="56.1639" y2="866.145" gradientUnits="userSpaceOnUse">
<stop stop-color="#9B62E2"/>
<stop offset="1" stop-color="#BB2E81"/>
</linearGradient>
</defs>
</svg>
