<svg width="541" height="615" viewBox="0 0 541 615" fill="none" xmlns="http://www.w3.org/2000/svg">
<path d="M315.165 727.389C326.232 734.814 350.024 756.289 458.352 771.877C566.68 787.464 528.185 694.276 584.93 627.754C641.674 561.233 517.04 536.784 517.541 459.513C518.043 382.243 396.868 352.636 372.63 440.417C348.392 528.198 241.329 543.644 255.663 613.541C269.996 683.439 304.098 719.964 315.165 727.389Z" fill="#FDE351"/>
<path d="M588.883 107.199C519.376 121.936 454.049 168.273 413.739 233.173C387.263 275.8 357.497 346.069 314.649 372.899C260.508 406.8 202.666 420.205 150.572 460.749C80.3333 515.415 40.0869 606.519 34.6882 691.899" stroke="url(#paint0_linear_358_4)" stroke-width="8" stroke-linecap="round"/>
<defs>
<linearGradient id="paint0_linear_358_4" x1="491.231" y1="142.882" x2="46.1639" y2="866.145" gradientUnits="userSpaceOnUse">
<stop stop-color="#9B62E2"/>
<stop offset="1" stop-color="#BB2E81"/>
</linearGradient>
</defs>
</svg>
